<svg width="302" height="200" viewBox="0 0 302 200" fill="none" xmlns="http://www.w3.org/2000/svg">
<g clip-path="url(#clip0_3282_106014)">
<path d="M289.89 0H12C5.37258 0 0 5.37258 0 12V188C0 194.627 5.37258 200 12 200H289.89C296.517 200 301.89 194.627 301.89 188V12C301.89 5.37258 296.517 0 289.89 0Z" fill="#FFE8DB"/>
<path d="M94.1999 106.51H14.4599C13.0571 106.51 11.9199 107.647 11.9199 109.05V162.83C11.9199 164.233 13.0571 165.37 14.4599 165.37H94.1999C95.6027 165.37 96.7399 164.233 96.7399 162.83V109.05C96.7399 107.647 95.6027 106.51 94.1999 106.51Z" stroke="white" stroke-width="0.5" stroke-linecap="round" stroke-linejoin="round"/>
<path d="M287.44 111.34H207.7C206.297 111.34 205.16 112.477 205.16 113.88V167.66C205.16 169.063 206.297 170.2 207.7 170.2H287.44C288.843 170.2 289.98 169.063 289.98 167.66V113.88C289.98 112.477 288.843 111.34 287.44 111.34Z" stroke="white" stroke-width="0.5" stroke-linecap="round" stroke-linejoin="round"/>
<path d="M267.88 61.5H188.14C186.737 61.5 185.6 62.6372 185.6 64.04V117.82C185.6 119.223 186.737 120.36 188.14 120.36H267.88C269.282 120.36 270.42 119.223 270.42 117.82V64.04C270.42 62.6372 269.282 61.5 267.88 61.5Z" stroke="white" stroke-width="0.5" stroke-linecap="round" stroke-linejoin="round"/>
<path d="M114.82 56.27H35.08C33.6772 56.27 32.54 57.4072 32.54 58.81V112.59C32.54 113.993 33.6772 115.13 35.08 115.13H114.82C116.223 115.13 117.36 113.993 117.36 112.59V58.81C117.36 57.4072 116.223 56.27 114.82 56.27Z" stroke="white" stroke-width="0.5" stroke-linecap="round" stroke-linejoin="round"/>
<path d="M215.34 200V28C215.341 27.2204 215.189 26.4483 214.891 25.7277C214.594 25.007 214.157 24.3521 213.606 23.8004C213.056 23.2487 212.402 22.811 211.681 22.5123C210.961 22.2137 210.189 22.0601 209.41 22.0601H97.5698C95.9944 22.0601 94.4836 22.6858 93.3696 23.7998C92.2557 24.9138 91.6299 26.4246 91.6299 28V200H215.34Z" fill="#131313"/>
<path d="M215.34 200V28C215.341 27.2204 215.189 26.4483 214.891 25.7277C214.594 25.007 214.157 24.3521 213.606 23.8004C213.056 23.2487 212.402 22.811 211.681 22.5123C210.961 22.2137 210.189 22.0601 209.41 22.0601H97.5698C95.9944 22.0601 94.4836 22.6858 93.3696 23.7998C92.2557 24.9138 91.6299 26.4246 91.6299 28V200H215.34Z" fill="#7A7A7A"/>
<path d="M210.48 200V41.1501C210.48 40.694 210.299 40.2565 209.977 39.934C209.654 39.6114 209.216 39.4302 208.76 39.4302H98.1704C97.7133 39.4302 97.2746 39.6111 96.9504 39.9333C96.6263 40.2556 96.4431 40.6931 96.4404 41.1501V200H210.48Z" fill="#FAFAFA"/>
<path d="M147.15 31.3301H162.35" stroke="#FAFAFA" stroke-width="1.73" stroke-linecap="round" stroke-linejoin="round"/>
<path d="M208.76 39.4302H98.1704C97.7133 39.4302 97.2746 39.6111 96.9504 39.9333C96.6263 40.2556 96.4431 40.6931 96.4404 41.1501V59.7902H210.44V41.1802C210.448 40.7257 210.276 40.2864 209.961 39.9585C209.647 39.6306 209.215 39.4407 208.76 39.4302Z" fill="url(#paint0_linear_3282_106014)"/>
<path d="M95.3401 99.05H77.99C77.99 98.71 78.05 98.37 78.05 98.05C78.05 93.2019 76.1242 88.5523 72.696 85.1241C69.2679 81.696 64.6182 79.77 59.77 79.77C54.9219 79.77 50.2724 81.696 46.8442 85.1241C43.4161 88.5523 41.49 93.2019 41.49 98.05C41.49 98.4 41.49 98.74 41.54 99.05H24.97C24.3278 99.05 23.6922 99.1765 23.0989 99.4222C22.5056 99.668 21.9665 100.028 21.5125 100.482C21.0584 100.936 20.6981 101.475 20.4524 102.069C20.2066 102.662 20.0801 103.298 20.0801 103.94V147.43C20.0801 148.727 20.5954 149.971 21.5125 150.888C22.4295 151.805 23.6731 152.32 24.97 152.32H95.3401C96.637 152.32 97.8808 151.805 98.7979 150.888C99.7149 149.971 100.23 148.727 100.23 147.43V103.94C100.23 103.298 100.104 102.662 99.8579 102.069C99.6122 101.475 99.2519 100.936 98.7979 100.482C98.3438 100.028 97.8047 99.668 97.2114 99.4222C96.6181 99.1765 95.9823 99.05 95.3401 99.05Z" fill="#FCC9B4"/>
<path d="M41.5203 99.0498H24.7803C23.5417 99.0498 22.3538 99.5418 21.478 100.418C20.6022 101.293 20.1104 102.481 20.1104 103.72V147.65C20.1104 148.888 20.6022 150.076 21.478 150.952C22.3538 151.828 23.5417 152.32 24.7803 152.32H95.3403" stroke="#141414" stroke-width="0.39" stroke-linecap="round" stroke-linejoin="round"/>
<path d="M59.7996 79.79C57.3995 79.7887 55.0227 80.2603 52.8049 81.1779C50.5872 82.0954 48.5719 83.441 46.8743 85.1377C45.1767 86.8344 43.8302 88.8489 42.9114 91.0662C41.9926 93.2834 41.5195 95.66 41.5195 98.0601C41.5195 98.4101 41.5196 98.7501 41.5696 99.0601" stroke="#141414" stroke-width="0.39" stroke-linecap="round" stroke-linejoin="round"/>
<path d="M52.1504 135.24C54.3595 135.24 56.1504 133.44 56.1504 131.22C56.1504 129 54.3595 127.2 52.1504 127.2C49.9413 127.2 48.1504 129 48.1504 131.22C48.1504 133.44 49.9413 135.24 52.1504 135.24Z" fill="#131313"/>
<path d="M81.0098 135.24C83.2189 135.24 85.0098 133.44 85.0098 131.22C85.0098 129 83.2189 127.2 81.0098 127.2C78.8006 127.2 77.0098 129 77.0098 131.22C77.0098 133.44 78.8006 135.24 81.0098 135.24Z" fill="#131313"/>
<path d="M64.1104 124.25L62.7703 123.16C61.0203 123.16 57.5904 123.1 56.6304 123.04C55.3304 122.97 44.7104 122.58 44.7104 122.58C44.7104 122.58 43.2704 122.58 42.4104 122.66C42.2504 122.66 41.9604 122.72 41.6104 122.78C44.2015 123.269 46.8196 123.603 49.4504 123.78C52.6204 123.97 64.1104 124.25 64.1104 124.25Z" fill="#131313"/>
<path d="M64.1105 124.25C64.1105 124.25 52.6206 123.97 49.4506 123.76C46.8197 123.582 44.2016 123.248 41.6105 122.76C40.1005 123.02 37.2904 123.64 37.0304 123.67C36.4342 123.703 35.8366 123.703 35.2403 123.67C34.6703 123.67 34.5904 123.89 34.5904 124.03V124.75C34.2487 125.589 33.9777 126.455 33.7804 127.34C33.7272 128.32 33.7878 129.303 33.9606 130.27C34.1015 130.553 34.301 130.802 34.5458 131.002C34.7906 131.202 35.0751 131.348 35.3805 131.43L39.3805 132.59L49.6805 132.96C50.5705 132.96 68.5504 133.12 68.5504 133.12C68.5504 133.12 78.2705 133.04 80.3705 133.04C82.4705 133.04 86.5804 133.04 87.0004 132.93C87.3471 132.786 87.6464 132.547 87.8639 132.241C88.0814 131.936 88.2083 131.575 88.2303 131.2C88.3903 130.14 88.4805 127.59 87.8805 126.73C87.2805 125.87 85.8804 125.52 83.7804 125.09C81.6804 124.66 76.5405 124.09 74.9405 123.85C74.4415 123.825 73.9521 123.701 73.5008 123.487C73.0496 123.272 72.6451 122.971 72.3104 122.6C71.7404 122.14 70.1604 120.93 69.3104 120.26C68.924 119.961 68.4492 119.799 67.9606 119.8H59.3905C59.3375 119.801 59.2861 119.818 59.2433 119.85C59.2005 119.881 59.1684 119.924 59.151 119.974C59.1336 120.024 59.1319 120.079 59.1461 120.13C59.1603 120.181 59.1896 120.226 59.2303 120.26L64.1105 124.25Z" fill="url(#paint1_linear_3282_106014)"/>
<path d="M87.8999 126.79C87.2899 125.93 85.8998 125.58 83.7998 125.15C81.6998 124.72 76.56 124.15 74.96 123.91C74.4609 123.885 73.9716 123.761 73.5203 123.547C73.069 123.332 72.6645 123.031 72.3298 122.66C71.7598 122.2 70.1798 120.99 69.3298 120.32C68.9434 120.021 68.4683 119.859 67.9797 119.86H59.3398C59.7687 119.891 60.1789 120.048 60.5198 120.31C61.3998 120.98 62.9598 122.22 63.5198 122.65C65.0498 123.77 65.1798 123.87 66.2698 124C67.8798 124.19 72.5799 124.71 74.6799 125.14C76.7799 125.57 78.1598 125.92 78.7698 126.78C79.3798 127.64 79.2799 130.19 79.1199 131.25C79.0979 131.625 78.9707 131.986 78.7532 132.292C78.5357 132.597 78.2366 132.836 77.8899 132.98C77.7268 132.993 77.563 132.993 77.3999 132.98C78.3976 133.063 79.3994 133.087 80.3999 133.05C82.4999 133.05 86.6098 133.05 87.0298 132.94C87.3765 132.796 87.6758 132.558 87.8933 132.252C88.1108 131.946 88.2378 131.585 88.2598 131.21C88.4098 130.2 88.4999 127.65 87.8999 126.79Z" fill="url(#paint2_linear_3282_106014)"/>
<path d="M72.3398 122.66C71.7698 122.2 70.1898 120.99 69.3398 120.32C68.9534 120.021 68.4783 119.859 67.9897 119.86H59.3398C59.7687 119.891 60.1789 120.048 60.5198 120.31C61.3998 120.98 62.9598 122.22 63.5198 122.65C64.7598 123.56 65.0797 123.79 65.7297 123.92H74.9399C73.9412 123.859 73.0068 123.406 72.3398 122.66Z" fill="white"/>
<path d="M44.9998 123.32C46.3698 123.5 47.88 123.65 49.45 123.76C50.45 123.83 52.2899 123.9 54.3299 123.97L53.5498 122.51C53.4714 122.368 53.3574 122.249 53.2188 122.165C53.0802 122.08 52.9219 122.034 52.7598 122.03C50.9898 122.03 45.4499 122.03 45.1599 122.03C45.0774 122.047 44.9995 122.082 44.9322 122.133C44.8648 122.183 44.8097 122.248 44.7705 122.323C44.7313 122.397 44.7091 122.48 44.7056 122.564C44.702 122.648 44.717 122.732 44.7498 122.81C44.9098 123.15 44.9898 123.32 44.9998 123.32Z" fill="#FFB9A4"/>
<path d="M56.52 124.04C60.34 124.16 64.1101 124.25 64.1101 124.25L61.4602 122.11C59.2302 122.11 56.5601 122.11 56.3601 122.11C56.2776 122.127 56.1999 122.162 56.1326 122.213C56.0652 122.263 56.0099 122.328 55.9707 122.403C55.9315 122.478 55.9093 122.56 55.9058 122.644C55.9022 122.728 55.9174 122.812 55.9502 122.89C56.1102 123.24 56.52 124.04 56.52 124.04Z" fill="#FFB9A4"/>
<path d="M63.5799 124.23C62.8441 123.819 62.0573 123.506 61.2398 123.3C60.3998 123.19 59.94 123.3 59.68 123.72C59.6181 123.835 59.584 123.963 59.5804 124.094C59.5768 124.225 59.6037 124.355 59.659 124.473C59.7144 124.592 59.7967 124.696 59.8993 124.777C60.0019 124.858 60.1218 124.914 60.2498 124.94C60.7998 124.94 62.18 124.94 62.18 124.94" fill="url(#paint3_linear_3282_106014)"/>
<path d="M33.7803 127.51C35.7303 126.62 36.7104 125.91 36.1404 125.38C35.6931 125.038 35.1527 124.839 34.5903 124.81C34.2485 125.649 33.9775 126.516 33.7803 127.4V127.51Z" fill="white"/>
<path d="M42.7197 135.34C44.9289 135.34 46.7197 133.54 46.7197 131.32C46.7197 129.1 44.9289 127.3 42.7197 127.3C40.5106 127.3 38.7197 129.1 38.7197 131.32C38.7197 133.54 40.5106 135.34 42.7197 135.34Z" fill="#131313"/>
<path d="M71.5801 135.34C73.7892 135.34 75.5801 133.54 75.5801 131.32C75.5801 129.1 73.7892 127.3 71.5801 127.3C69.3709 127.3 67.5801 129.1 67.5801 131.32C67.5801 133.54 69.3709 135.34 71.5801 135.34Z" fill="#131313"/>
<path d="M88.3401 128.86C88.3528 128.168 88.2021 127.483 87.9001 126.86C87.6558 127.042 87.485 127.306 87.4189 127.603C87.3529 127.9 87.3958 128.212 87.54 128.48C87.6381 128.597 87.7603 128.692 87.8984 128.757C88.0365 128.823 88.1872 128.858 88.3401 128.86Z" fill="white"/>
<path d="M45.6201 122.18C45.5464 122.111 45.4547 122.064 45.3557 122.045C45.2568 122.025 45.1544 122.034 45.0601 122.07C44.9206 122.129 44.8099 122.241 44.752 122.382C44.694 122.522 44.6933 122.679 44.75 122.82L45 123.32L46.3501 123.48C46.3501 123.48 45.7701 122.35 45.6201 122.18Z" fill="url(#paint4_linear_3282_106014)"/>
<path d="M56.8201 122.27C56.7463 122.201 56.6549 122.155 56.5559 122.135C56.457 122.116 56.3543 122.124 56.26 122.16C56.1205 122.22 56.0101 122.332 55.9522 122.472C55.8942 122.612 55.8935 122.769 55.9502 122.91C56.1102 123.24 56.52 124.04 56.52 124.04H57.77C57.77 124.04 56.9701 122.44 56.8201 122.27Z" fill="url(#paint5_linear_3282_106014)"/>
<path d="M78.6003 126.57C78.5338 126.62 78.4764 126.681 78.4304 126.75C78.2736 127.063 78.2442 127.424 78.3486 127.758C78.4531 128.092 78.6831 128.372 78.9902 128.54L79.2402 128.68C79.2427 128.023 79.0884 127.375 78.7903 126.79C78.7324 126.712 78.6689 126.638 78.6003 126.57Z" fill="white"/>
<path d="M80.8696 128.43C81.0264 128.117 81.0556 127.756 80.9512 127.422C80.8467 127.088 80.6167 126.808 80.3096 126.64C80.0688 126.449 79.7735 126.339 79.4661 126.326C79.1587 126.313 78.8552 126.399 78.5996 126.57C78.6682 126.639 78.7316 126.712 78.7896 126.79C79.0877 127.375 79.2419 128.023 79.2395 128.68C79.4959 128.841 79.8017 128.905 80.1011 128.859C80.4004 128.813 80.6733 128.661 80.8696 128.43Z" fill="white"/>
<path d="M54.5303 90.9302V101.19" stroke="url(#paint6_linear_3282_106014)" stroke-width="3" stroke-linecap="round" stroke-linejoin="round"/>
<path d="M64.6396 90.9302V101.19" stroke="url(#paint7_linear_3282_106014)" stroke-width="3" stroke-linecap="round" stroke-linejoin="round"/>
<path d="M281.93 99.05H264.58C264.58 98.71 264.63 98.37 264.63 98.05C264.63 93.2019 262.704 88.5523 259.276 85.1241C255.847 81.696 251.198 79.77 246.35 79.77C241.502 79.77 236.852 81.696 233.424 85.1241C229.996 88.5523 228.07 93.2019 228.07 98.05C228.07 98.4 228.07 98.74 228.12 99.05H211.55C210.908 99.05 210.273 99.1766 209.68 99.4225C209.087 99.6684 208.549 100.029 208.096 100.483C207.642 100.937 207.283 101.476 207.038 102.069C206.794 102.663 206.669 103.298 206.67 103.94V147.43C206.669 148.072 206.794 148.707 207.038 149.301C207.283 149.894 207.642 150.433 208.096 150.887C208.549 151.341 209.087 151.702 209.68 151.948C210.273 152.193 210.908 152.32 211.55 152.32H281.93C283.227 152.32 284.471 151.805 285.388 150.888C286.305 149.971 286.82 148.727 286.82 147.43V103.94C286.82 103.298 286.693 102.662 286.448 102.069C286.202 101.475 285.842 100.936 285.388 100.482C284.934 100.028 284.395 99.668 283.801 99.4222C283.208 99.1765 282.572 99.05 281.93 99.05Z" fill="#FCC9B4"/>
<path d="M228.07 99.0498H211.34C210.727 99.0498 210.12 99.1707 209.554 99.4055C208.988 99.6403 208.474 99.9844 208.041 100.418C207.608 100.852 207.265 101.367 207.032 101.933C206.798 102.5 206.678 103.107 206.68 103.72V147.65C206.68 148.887 207.17 150.073 208.044 150.948C208.918 151.824 210.103 152.317 211.34 152.32H281.94" stroke="#141414" stroke-width="0.39" stroke-linecap="round" stroke-linejoin="round"/>
<path d="M265.74 134.59C267.894 134.59 269.64 132.835 269.64 130.67C269.64 128.505 267.894 126.75 265.74 126.75C263.586 126.75 261.84 128.505 261.84 130.67C261.84 132.835 263.586 134.59 265.74 134.59Z" fill="#131313"/>
<path d="M237.63 134.59C239.784 134.59 241.53 132.835 241.53 130.67C241.53 128.505 239.784 126.75 237.63 126.75C235.477 126.75 233.73 128.505 233.73 130.67C233.73 132.835 235.477 134.59 237.63 134.59Z" fill="#131313"/>
<path d="M220.55 125.38C220.55 124.55 220.7 122.38 220.79 121.13C220.8 121 220.854 120.878 220.943 120.784C221.032 120.689 221.151 120.628 221.28 120.61C221.894 120.54 222.502 120.426 223.1 120.27C224.48 119.92 231.89 117.58 238.03 117.35C242.56 117.102 247.103 117.243 251.61 117.77C253.467 118.125 255.272 118.717 256.98 119.53C259.297 120.737 261.693 121.789 264.15 122.68C265.52 123 269.79 123.75 271.52 124.68C273.25 125.61 274.02 128.32 274.2 129.68C274.2 129.95 274.26 130.21 274.28 130.45C274.295 130.637 274.271 130.825 274.21 131.002C274.149 131.179 274.053 131.342 273.926 131.48C273.799 131.618 273.645 131.728 273.474 131.804C273.302 131.88 273.117 131.919 272.93 131.92H261.93C261.656 131.919 261.393 131.815 261.191 131.631C260.99 131.446 260.865 131.192 260.84 130.92C260.808 129.846 260.359 128.828 259.588 128.08C258.816 127.333 257.784 126.917 256.71 126.92L252.49 132.12L233.83 131.99C233.553 131.994 233.285 131.893 233.079 131.707C232.873 131.522 232.745 131.266 232.72 130.99C232.54 129.5 231.72 126.82 228.5 126.99L224.17 131.34L220.65 130.47C219.92 130.29 219.33 129.95 219.26 129.2V128.75C219.207 128.21 219.353 127.67 219.67 127.23L220.38 126C220.49 125.812 220.549 125.598 220.55 125.38Z" fill="url(#paint8_linear_3282_106014)"/>
<path d="M265.34 130.79C265.246 129.64 265.004 128.508 264.62 127.42C264.381 126.616 263.929 125.891 263.314 125.321C262.698 124.751 261.94 124.357 261.12 124.18L255.12 122.89C254.426 122.741 253.774 122.44 253.21 122.01C251.323 120.584 249.296 119.355 247.16 118.34C245.067 117.726 242.908 117.36 240.73 117.25C239.83 117.25 238.91 117.25 237.98 117.32C231.84 117.55 224.43 119.89 223.05 120.24C222.452 120.396 221.844 120.51 221.23 120.58C221.101 120.598 220.982 120.659 220.893 120.754C220.804 120.848 220.75 120.971 220.74 121.1C220.65 122.37 220.54 124.52 220.5 125.35C220.488 125.58 220.412 125.801 220.28 125.99L219.57 127.22C219.253 127.66 219.107 128.2 219.16 128.74V129.19C219.23 129.94 219.82 130.28 220.55 130.46L224.07 131.33C224.07 131.33 233.17 131.98 233.73 131.97L252.39 132.1C252.39 132.1 261.27 131.85 261.83 131.85H263.44C264.34 131.88 265.18 131.73 265.34 130.79Z" fill="url(#paint9_linear_3282_106014)"/>
<path d="M225.58 121.06C225.569 121.056 225.56 121.048 225.554 121.038C225.548 121.028 225.544 121.017 225.544 121.005C225.544 120.993 225.548 120.982 225.554 120.972C225.56 120.963 225.569 120.955 225.58 120.95C226.78 120.54 232.58 118.56 236.51 118.39C240.87 118.19 245.27 118.74 246.97 119.44C248.5 120.06 250.89 121.13 251.82 122.75C251.857 122.814 251.877 122.888 251.876 122.962C251.876 123.036 251.856 123.109 251.819 123.173C251.781 123.237 251.727 123.29 251.662 123.326C251.598 123.363 251.524 123.381 251.45 123.38C249.45 123.38 242.94 123.15 235.77 122.43C228.78 121.73 226.28 121.16 225.58 121.06Z" fill="white"/>
<path d="M256.98 119.53C255.524 118.826 253.99 118.295 252.41 117.95C251.56 117.88 249.73 117.75 247.58 117.76C250.032 118.763 252.328 120.11 254.4 121.76C254.909 122.19 255.554 122.424 256.22 122.42H263.22C261.59 121.79 258.9 120.43 256.98 119.53Z" fill="white"/>
<path d="M267.54 126.79C266.149 125.808 264.628 125.027 263.02 124.47C261.762 124.138 260.477 123.921 259.18 123.82L261.12 124.24C261.94 124.416 262.697 124.81 263.313 125.38C263.929 125.951 264.38 126.676 264.62 127.48H267.34C267.413 127.467 267.482 127.434 267.538 127.384C267.593 127.334 267.634 127.269 267.655 127.197C267.676 127.125 267.676 127.049 267.656 126.977C267.635 126.905 267.595 126.84 267.54 126.79Z" fill="white"/>
<path d="M261.12 124.21L259.18 123.79L263.18 127.02C263.556 127.325 264.025 127.491 264.51 127.49H264.6C264.368 126.681 263.922 125.949 263.31 125.372C262.698 124.795 261.941 124.393 261.12 124.21Z" fill="white"/>
<path d="M273.08 126.31C272.85 126.46 272.62 126.61 272.42 126.76C272.349 126.809 272.295 126.88 272.267 126.962C272.239 127.044 272.239 127.133 272.266 127.215C272.293 127.298 272.346 127.369 272.417 127.418C272.488 127.468 272.574 127.493 272.66 127.49H273.66C273.5 127.081 273.306 126.687 273.08 126.31Z" fill="white"/>
<path d="M224.77 122.06L220.96 120.77C220.863 120.866 220.803 120.994 220.79 121.13C220.73 122 220.66 123.28 220.61 124.27C220.96 123.14 224.77 122.06 224.77 122.06Z" fill="white"/>
<path d="M251.69 123.31L250.87 122.75C250.665 122.615 250.426 122.542 250.18 122.54H249.34C249.135 122.543 248.936 122.609 248.77 122.729C248.603 122.848 248.478 123.017 248.41 123.21C248.382 123.311 248.376 123.417 248.394 123.521C248.411 123.625 248.451 123.723 248.51 123.81C248.6 123.933 248.717 124.035 248.853 124.106C248.988 124.177 249.137 124.216 249.29 124.22H251" fill="url(#paint10_linear_3282_106014)"/>
<path d="M228.01 135.34C230.164 135.34 231.91 133.585 231.91 131.42C231.91 129.255 230.164 127.5 228.01 127.5C225.856 127.5 224.11 129.255 224.11 131.42C224.11 133.585 225.856 135.34 228.01 135.34Z" fill="#131313"/>
<path d="M256.14 135.25C258.294 135.25 260.04 133.495 260.04 131.33C260.04 129.165 258.294 127.41 256.14 127.41C253.986 127.41 252.24 129.165 252.24 131.33C252.24 133.495 253.986 135.25 256.14 135.25Z" fill="#131313"/>
<path d="M239.41 91.1899H253.67" stroke="url(#paint11_linear_3282_106014)" stroke-width="3" stroke-linecap="round" stroke-linejoin="round"/>
<path d="M251.96 87.4801L255.71 90.5401C255.804 90.6161 255.88 90.712 255.932 90.821C255.984 90.93 256.011 91.0493 256.011 91.1701C256.011 91.2909 255.984 91.4102 255.932 91.5193C255.88 91.6283 255.804 91.7242 255.71 91.8001L251.92 94.8901C251.8 94.9859 251.654 95.0458 251.501 95.063C251.348 95.0801 251.193 95.0537 251.054 94.9869C250.916 94.9201 250.799 94.8156 250.716 94.6853C250.634 94.555 250.591 94.4041 250.59 94.2501V88.1101C250.586 87.9495 250.629 87.7914 250.713 87.655C250.798 87.5186 250.921 87.4102 251.067 87.3431C251.213 87.276 251.376 87.2532 251.534 87.2776C251.693 87.3019 251.841 87.3723 251.96 87.4801Z" fill="url(#paint12_linear_3282_106014)"/>
<path d="M253.25 101.73H238.99" stroke="url(#paint13_linear_3282_106014)" stroke-width="3" stroke-linecap="round" stroke-linejoin="round"/>
<path d="M240.7 98.0299L236.95 101.03C236.856 101.107 236.78 101.204 236.728 101.313C236.675 101.423 236.648 101.543 236.648 101.665C236.648 101.786 236.675 101.907 236.728 102.016C236.78 102.126 236.856 102.223 236.95 102.3L240.74 105.38C240.86 105.476 241.005 105.536 241.158 105.553C241.312 105.57 241.466 105.543 241.605 105.477C241.744 105.41 241.861 105.305 241.943 105.175C242.025 105.045 242.069 104.894 242.07 104.74V98.6099C242.069 98.4516 242.021 98.2972 241.933 98.1655C241.846 98.0339 241.721 97.931 241.575 97.8693C241.43 97.8076 241.269 97.7899 241.114 97.8185C240.958 97.847 240.814 97.9205 240.7 98.0299Z" fill="url(#paint14_linear_3282_106014)"/>
<path d="M246.34 79.79C241.493 79.79 236.845 81.7146 233.417 85.1406C229.989 88.5666 228.062 93.2136 228.06 98.0601C228.06 98.4101 228.06 98.7501 228.11 99.0601" stroke="#141414" stroke-width="0.39" stroke-linecap="round" stroke-linejoin="round"/>
<path d="M192.44 93.7198H173.75C173.75 93.4798 173.75 93.2397 173.75 92.9897C173.629 87.414 171.329 82.1073 167.343 78.2067C163.357 74.306 158.002 72.1216 152.425 72.1216C146.848 72.1216 141.492 74.306 137.506 78.2067C133.52 82.1073 131.221 87.414 131.1 92.9897C131.1 93.2397 131.1 93.4798 131.1 93.7198H114.41C113.068 93.7303 111.785 94.2678 110.836 95.2163C109.888 96.1649 109.35 97.4484 109.34 98.7898V147.18C109.34 147.85 109.472 148.514 109.729 149.134C109.986 149.753 110.363 150.316 110.837 150.79C111.312 151.263 111.875 151.639 112.495 151.894C113.115 152.15 113.779 152.281 114.45 152.28H192.4C193.07 152.281 193.735 152.15 194.354 151.894C194.974 151.639 195.538 151.263 196.012 150.79C196.487 150.316 196.864 149.753 197.121 149.134C197.378 148.514 197.51 147.85 197.51 147.18V98.7898C197.499 97.4484 196.962 96.1649 196.013 95.2163C195.065 94.2678 193.781 93.7303 192.44 93.7198Z" fill="#FCC9B4"/>
<path d="M131.15 93.7202H114.26C112.965 93.7229 111.723 94.2391 110.809 95.1559C109.894 96.0726 109.38 97.3149 109.38 98.6101V147.44C109.383 148.734 109.897 149.973 110.812 150.888C111.727 151.803 112.966 152.318 114.26 152.32H192.44" stroke="#141414" stroke-width="0.43" stroke-linecap="round" stroke-linejoin="round"/>
<path d="M131.15 93.72C131.15 93.48 131.15 93.2399 131.15 92.9899C131.15 90.1901 131.702 87.4177 132.773 84.8311C133.845 82.2444 135.415 79.8942 137.395 77.9144C139.375 75.9347 141.725 74.3643 144.312 73.2928C146.898 72.2214 149.67 71.6699 152.47 71.6699" stroke="#141414" stroke-width="0.43" stroke-linecap="round" stroke-linejoin="round"/>
<path d="M150.4 82.5601L161.53 90.2001C161.773 90.3407 161.975 90.5426 162.115 90.7857C162.255 91.0288 162.329 91.3045 162.329 91.5852C162.329 91.8658 162.255 92.1415 162.115 92.3846C161.975 92.6277 161.773 92.8296 161.53 92.9702L150.24 100.73C148.72 101.73 146.35 100.91 146.37 99.3201L146.53 83.9301C146.54 82.3601 148.9 81.5301 150.4 82.5601Z" fill="url(#paint15_linear_3282_106014)"/>
<path d="M142.81 132.92C145.146 132.92 147.04 131.017 147.04 128.67C147.04 126.323 145.146 124.42 142.81 124.42C140.474 124.42 138.58 126.323 138.58 128.67C138.58 131.017 140.474 132.92 142.81 132.92Z" fill="#131313"/>
<path d="M175.68 132.92C178.016 132.92 179.91 131.017 179.91 128.67C179.91 126.323 178.016 124.42 175.68 124.42C173.344 124.42 171.45 126.323 171.45 128.67C171.45 131.017 173.344 132.92 175.68 132.92Z" fill="#131313"/>
<path d="M128.22 129.69C126.885 129.465 125.57 129.13 124.29 128.69C123.911 128.394 123.647 127.977 123.541 127.508C123.435 127.04 123.495 126.549 123.71 126.12C123.473 124.253 123.359 122.372 123.37 120.49C123.921 118.494 124.87 116.63 126.16 115.01C126.16 115.01 126.08 114.45 126.07 114.16C126.06 113.87 126.37 113.8 127.07 113.77C127.77 113.74 138.07 112.77 141.7 112.69C145.33 112.61 153.51 112.69 155.78 112.86C159.11 112.915 162.39 113.682 165.4 115.11C169.22 117 171.74 118.79 172.74 119.11C173.74 119.43 178.09 119.93 180.57 120.9C181.323 121.157 181.992 121.617 182.502 122.229C183.011 122.841 183.343 123.582 183.46 124.37C183.63 125.14 183.98 128.61 183.37 129.2C182.582 129.758 181.621 130.016 180.66 129.93C179.66 129.93 138.58 130.18 137.99 130.08C137.4 129.98 128.22 129.69 128.22 129.69Z" fill="url(#paint16_linear_3282_106014)"/>
<path d="M183.43 124.39C183.313 123.602 182.981 122.861 182.472 122.249C181.962 121.637 181.294 121.177 180.54 120.92C178.06 119.92 173.71 119.48 172.71 119.13C171.71 118.78 169.19 117 165.37 115.13C162.36 113.702 159.08 112.935 155.75 112.88C153.48 112.76 145.28 112.67 141.67 112.71H140.97C143.7 112.71 146.31 112.8 147.42 112.86C150.603 112.916 153.733 113.685 156.58 115.11C160.21 117 160.63 118.26 162.58 118.99C164.28 119.63 168.69 119.99 171.05 120.92C171.778 121.197 172.418 121.666 172.902 122.277C173.386 122.887 173.696 123.617 173.8 124.39C173.96 125.16 174.29 128.63 173.71 129.22C173.214 129.641 172.591 129.884 171.94 129.91C174.36 129.91 179.94 129.91 180.67 129.91C181.631 129.996 182.592 129.738 183.38 129.18C183.95 128.63 183.6 125.16 183.43 124.39Z" fill="url(#paint17_linear_3282_106014)"/>
<path d="M172.18 118.9C170.96 118.28 168.64 116.73 165.37 115.11C164.207 114.535 162.991 114.073 161.74 113.73H155.04C156.186 114.143 157.288 114.669 158.33 115.3C159.54 116.01 161.18 117.21 162.27 118.02C163.028 118.59 163.951 118.899 164.9 118.9H172.18Z" fill="white"/>
<path d="M127 118.53C126.788 117.341 126.508 116.166 126.16 115.01C124.87 116.63 123.921 118.494 123.37 120.49C123.347 120.766 123.347 121.044 123.37 121.32C124.015 121.223 124.646 121.049 125.25 120.8C126.081 120.272 126.701 119.468 127 118.53Z" fill="white"/>
<path d="M137.49 114.06C145.49 113.63 151.17 114.22 153.49 115.17C155.705 115.97 157.702 117.279 159.32 118.99C159.407 119.1 159.46 119.233 159.473 119.372C159.486 119.511 159.459 119.652 159.395 119.776C159.33 119.9 159.232 120.004 159.11 120.073C158.989 120.143 158.85 120.177 158.71 120.17C154.94 120.03 143.87 119.63 139.47 119.52C134.13 119.39 132.58 119.41 131.37 119.12C130.16 118.83 129.28 117.12 128.9 116.51C128.52 115.9 128.4 115.72 128.52 115.36C128.73 114.79 129.57 114.48 137.49 114.06Z" fill="white"/>
<path d="M132.69 133.64C135.026 133.64 136.92 131.737 136.92 129.39C136.92 127.043 135.026 125.14 132.69 125.14C130.354 125.14 128.46 127.043 128.46 129.39C128.46 131.737 130.354 133.64 132.69 133.64Z" fill="#131313"/>
<path d="M165.55 133.64C167.886 133.64 169.78 131.737 169.78 129.39C169.78 127.043 167.886 125.14 165.55 125.14C163.214 125.14 161.32 127.043 161.32 129.39C161.32 131.737 163.214 133.64 165.55 133.64Z" fill="#131313"/>
<path d="M173.14 122.66H171.23C171.166 122.662 171.104 122.682 171.051 122.717C170.997 122.753 170.955 122.803 170.929 122.861C170.903 122.92 170.894 122.985 170.903 123.048C170.912 123.112 170.939 123.171 170.98 123.22L171.76 124.04C171.901 124.194 172.073 124.317 172.264 124.402C172.455 124.486 172.662 124.53 172.87 124.53H173.79C173.79 124.47 173.79 124.43 173.79 124.39C173.687 123.777 173.466 123.19 173.14 122.66Z" fill="white"/>
<path d="M176.18 123.99L175.37 123.25C174.962 122.872 174.426 122.661 173.87 122.66H173.14C173.455 123.192 173.665 123.779 173.76 124.39C173.76 124.39 173.76 124.47 173.76 124.53H175.94C176.005 124.537 176.071 124.524 176.128 124.491C176.185 124.458 176.23 124.408 176.257 124.348C176.284 124.288 176.291 124.221 176.277 124.156C176.263 124.092 176.229 124.034 176.18 123.99Z" fill="white"/>
<path d="M183.43 124.39C183.341 123.888 183.176 123.402 182.94 122.95C182.787 123.032 182.646 123.132 182.52 123.25L181.71 123.99C181.663 124.032 181.63 124.088 181.616 124.149C181.601 124.21 181.606 124.274 181.628 124.333C181.651 124.391 181.691 124.441 181.743 124.477C181.795 124.512 181.857 124.531 181.92 124.53H183.46C183.45 124.47 183.44 124.43 183.43 124.39Z" fill="white"/>
<path d="M138.06 113.97C137.546 115.774 137.125 117.603 136.8 119.45H137.93C137.93 119.45 138.93 114.86 139.22 113.89L138.06 113.97Z" fill="url(#paint18_linear_3282_106014)"/>
<path d="M147.19 114C147.621 115.902 147.876 117.841 147.95 119.79H149.09C148.958 117.86 148.688 115.941 148.28 114.05L147.19 114Z" fill="url(#paint19_linear_3282_106014)"/>
<path d="M159.34 119.79C159.031 119.422 158.596 119.183 158.12 119.12C157.25 118.95 156.74 119.04 156.44 119.36C156.361 119.466 156.305 119.586 156.273 119.713C156.241 119.841 156.235 119.974 156.254 120.104C156.274 120.234 156.319 120.359 156.386 120.471C156.454 120.584 156.544 120.682 156.65 120.76C157.394 120.829 158.142 120.856 158.89 120.84" fill="url(#paint20_linear_3282_106014)"/>
<path opacity="0.3" d="M107.8 45.4502L103.65 49.6002L107.8 53.7502" stroke="#FAFAFA" stroke-width="2" stroke-linecap="round" stroke-linejoin="round"/>
<path opacity="0.3" d="M199.83 45.4502L203.98 49.6002L199.83 53.7502" stroke="#FAFAFA" stroke-width="2" stroke-linecap="round" stroke-linejoin="round"/>
</g>
<defs>
<linearGradient id="paint0_linear_3282_106014" x1="96.4404" y1="49.6002" x2="210.48" y2="49.6002" gradientUnits="userSpaceOnUse">
<stop stop-color="#FF5F00"/>
<stop offset="1" stop-color="#FF7524"/>
</linearGradient>
<linearGradient id="paint1_linear_3282_106014" x1="37.0004" y1="130.56" x2="76.8704" y2="126.01" gradientUnits="userSpaceOnUse">
<stop stop-color="#FF5F00"/>
<stop offset="1" stop-color="#FF7524"/>
</linearGradient>
<linearGradient id="paint2_linear_3282_106014" x1="48.8999" y1="122.61" x2="87.7298" y2="128.85" gradientUnits="userSpaceOnUse">
<stop stop-color="#FFB9A4"/>
<stop offset="1" stop-color="#FF7524"/>
</linearGradient>
<linearGradient id="paint3_linear_3282_106014" x1="59.59" y1="124.12" x2="63.5799" y2="124.12" gradientUnits="userSpaceOnUse">
<stop stop-color="#FF5F00"/>
<stop offset="1" stop-color="#FF7524"/>
</linearGradient>
<linearGradient id="paint4_linear_3282_106014" x1="44.7" y1="122.76" x2="46.3501" y2="122.76" gradientUnits="userSpaceOnUse">
<stop stop-color="#FF5F00"/>
<stop offset="1" stop-color="#FF7524"/>
</linearGradient>
<linearGradient id="paint5_linear_3282_106014" x1="55.9002" y1="123.1" x2="57.77" y2="123.1" gradientUnits="userSpaceOnUse">
<stop stop-color="#FF5F00"/>
<stop offset="1" stop-color="#FF7524"/>
</linearGradient>
<linearGradient id="paint6_linear_3282_106014" x1="-nan" y1="-nan" x2="-nan" y2="-nan" gradientUnits="userSpaceOnUse">
<stop stop-color="#FF5F00"/>
<stop offset="1" stop-color="#FF7524"/>
</linearGradient>
<linearGradient id="paint7_linear_3282_106014" x1="-nan" y1="-nan" x2="-nan" y2="-nan" gradientUnits="userSpaceOnUse">
<stop stop-color="#FF5F00"/>
<stop offset="1" stop-color="#FF7524"/>
</linearGradient>
<linearGradient id="paint8_linear_3282_106014" x1="230.39" y1="124.51" x2="274.35" y2="125.19" gradientUnits="userSpaceOnUse">
<stop stop-color="#FFB9A4"/>
<stop offset="1" stop-color="#FF7524"/>
</linearGradient>
<linearGradient id="paint9_linear_3282_106014" x1="221.34" y1="130.55" x2="257.38" y2="123.01" gradientUnits="userSpaceOnUse">
<stop stop-color="#FF5F00"/>
<stop offset="1" stop-color="#FF7524"/>
</linearGradient>
<linearGradient id="paint10_linear_3282_106014" x1="248.32" y1="123.39" x2="251.69" y2="123.39" gradientUnits="userSpaceOnUse">
<stop stop-color="#FF5F00"/>
<stop offset="1" stop-color="#FF7524"/>
</linearGradient>
<linearGradient id="paint11_linear_3282_106014" x1="-nan" y1="-nan" x2="-nan" y2="-nan" gradientUnits="userSpaceOnUse">
<stop stop-color="#FF5F00"/>
<stop offset="1" stop-color="#FF7524"/>
</linearGradient>
<linearGradient id="paint12_linear_3282_106014" x1="249.765" y1="93.9435" x2="253.811" y2="88.9457" gradientUnits="userSpaceOnUse">
<stop stop-color="#FF5F00"/>
<stop offset="1" stop-color="#FF7524"/>
</linearGradient>
<linearGradient id="paint13_linear_3282_106014" x1="-nan" y1="-nan" x2="-nan" y2="-nan" gradientUnits="userSpaceOnUse">
<stop stop-color="#FF5F00"/>
<stop offset="1" stop-color="#FF7524"/>
</linearGradient>
<linearGradient id="paint14_linear_3282_106014" x1="237.618" y1="98.472" x2="233.573" y2="93.4644" gradientUnits="userSpaceOnUse">
<stop stop-color="#FF5F00"/>
<stop offset="1" stop-color="#FF7524"/>
</linearGradient>
<linearGradient id="paint15_linear_3282_106014" x1="154.34" y1="82.1001" x2="154.34" y2="101.18" gradientUnits="userSpaceOnUse">
<stop stop-color="#FF5F00"/>
<stop offset="1" stop-color="#FF7524"/>
</linearGradient>
<linearGradient id="paint16_linear_3282_106014" x1="125.32" y1="126.36" x2="167.93" y2="119.68" gradientUnits="userSpaceOnUse">
<stop stop-color="#FF5F00"/>
<stop offset="1" stop-color="#FF7524"/>
</linearGradient>
<linearGradient id="paint17_linear_3282_106014" x1="141.5" y1="118.24" x2="184.33" y2="124.13" gradientUnits="userSpaceOnUse">
<stop stop-color="#FFB9A4"/>
<stop offset="1" stop-color="#FF7524"/>
</linearGradient>
<linearGradient id="paint18_linear_3282_106014" x1="136.8" y1="116.7" x2="139.22" y2="116.7" gradientUnits="userSpaceOnUse">
<stop stop-color="#FF5F00"/>
<stop offset="1" stop-color="#FF7524"/>
</linearGradient>
<linearGradient id="paint19_linear_3282_106014" x1="147.19" y1="116.91" x2="149.09" y2="116.91" gradientUnits="userSpaceOnUse">
<stop stop-color="#FF5F00"/>
<stop offset="1" stop-color="#FF7524"/>
</linearGradient>
<linearGradient id="paint20_linear_3282_106014" x1="156.27" y1="119.98" x2="159.38" y2="119.98" gradientUnits="userSpaceOnUse">
<stop stop-color="#FF5F00"/>
<stop offset="1" stop-color="#FF7524"/>
</linearGradient>
<clipPath id="clip0_3282_106014">
<rect width="301.89" height="200" fill="white"/>
</clipPath>
</defs>
</svg>
